<svg viewBox="0 0 19 19" fill="none" xmlns="http://www.w3.org/2000/svg">
<path d="M14.2629 1.5L10.5029 0.56C10.3443 0.520249 10.1814 0.500099 10.0179 0.5H5.99993C5.62844 0.500013 5.26429 0.603493 4.94831 0.798842C4.63232 0.99419 4.37699 1.27369 4.21093 1.606L0.710932 8.606C0.558565 8.91092 0.486658 9.24972 0.502037 9.59024C0.517416 9.93076 0.619572 10.2617 0.798806 10.5516C0.978041 10.8416 1.2284 11.0809 1.52613 11.2469C1.82386 11.4129 2.15907 11.5 2.49993 11.5H7.26393H9.26393M14.2629 1.5L14.2639 10.5L10.8719 15.588C10.4749 16.183 10.2639 16.881 10.2639 17.596C10.2639 18.095 9.85893 18.5 9.35893 18.5H9.26293C8.7325 18.5 8.22379 18.2893 7.84872 17.9142C7.47365 17.5391 7.26293 17.0304 7.26293 16.5V11.5M14.2629 1.5H16.2639C16.7944 1.5 17.3031 1.71071 17.6781 2.08579C18.0532 2.46086 18.2639 2.96957 18.2639 3.5V9.5C18.2639 10.0304 18.0532 10.5391 17.6781 10.9142C17.3031 11.2893 16.7944 11.5 16.2639 11.5H13.7639" stroke="currentColor" stroke-width="2" stroke-linecap="round" stroke-linejoin="round"/>
</svg>
