<svg viewBox="0 0 19 19" fill="none" xmlns="http://www.w3.org/2000/svg">
<path d="M9.5 18.5C14.4706 18.5 18.5 14.4706 18.5 9.5C18.5 4.52944 14.4706 0.5 9.5 0.5M9.5 18.5C4.52944 18.5 0.5 14.4706 0.5 9.5C0.5 4.52944 4.52944 0.5 9.5 0.5M9.5 18.5C7.32538 18.5 5.5625 14.4706 5.5625 9.5C5.5625 4.52944 7.32538 0.5 9.5 0.5M9.5 18.5C11.6746 18.5 13.4375 14.4706 13.4375 9.5C13.4375 4.52944 11.6746 0.5 9.5 0.5M2.1875 13.8744C3.83632 12.9302 6.57573 12.3125 9.67636 12.3125C12.9124 12.3125 15.755 12.9854 17.375 14M2.1875 5.12558C3.83632 6.06975 6.57573 6.6875 9.67636 6.6875C12.9124 6.6875 15.755 6.0146 17.375 5" stroke-width="2" stroke="currentColor"/>
</svg>
