<svg viewBox="0 0 19 19" fill="none" xmlns="http://www.w3.org/2000/svg">
<path d="M11.5 7.5H16.264C16.6049 7.50001 16.9401 7.58714 17.2378 7.75312C17.5355 7.9191 17.7859 8.15842 17.9651 8.44836C18.1444 8.7383 18.2465 9.06924 18.2619 9.40976C18.2773 9.75028 18.2054 10.0891 18.053 10.394L14.553 17.394C14.3869 17.7265 14.1314 18.0061 13.8152 18.2014C13.499 18.3968 13.1347 18.5002 12.763 18.5H8.746C8.583 18.5 8.42 18.48 8.261 18.44L4.5 17.5M11.5 7.5V2.5C11.5 1.96957 11.2893 1.46086 10.9142 1.08579C10.5391 0.710714 10.0304 0.5 9.5 0.5H9.405C8.905 0.5 8.5 0.905 8.5 1.405C8.5 2.119 8.289 2.817 7.892 3.411L4.5 8.5V17.5M11.5 7.5H9.5M4.5 17.5H2.5C1.96957 17.5 1.46086 17.2893 1.08579 16.9142C0.710714 16.5391 0.5 16.0304 0.5 15.5V9.5C0.5 8.96957 0.710714 8.46086 1.08579 8.08579C1.46086 7.71071 1.96957 7.5 2.5 7.5H5" stroke="currentColor" stroke-width="2" stroke-linecap="round" stroke-linejoin="round"/>
</svg>
