<svg viewBox="0 0 19 19" fill="none" xmlns="http://www.w3.org/2000/svg">
<path d="M18.033 16.2403C18.033 16.2403 16.8743 17.3783 16.5904 17.7119C16.1278 18.2055 15.5828 18.4386 14.8684 18.4386C14.7997 18.4386 14.7264 18.4386 14.6577 18.434C13.2975 18.3472 12.0336 17.817 11.0856 17.3646C8.49345 16.1123 6.21734 14.3344 4.32592 12.0812C2.76424 10.2028 1.72007 8.4661 1.02854 6.6014C0.602626 5.46339 0.446916 4.57674 0.515611 3.74037C0.561408 3.20564 0.767495 2.76232 1.14761 2.38298L2.70929 0.824494C2.93369 0.614259 3.17184 0.5 3.4054 0.5C3.69392 0.5 3.92749 0.673673 4.07404 0.819924C4.07862 0.824494 4.0832 0.829065 4.08778 0.833635C4.36714 1.09414 4.63276 1.36379 4.91212 1.65173C5.05409 1.79798 5.20064 1.94423 5.34719 2.09505L6.59745 3.34275C7.0829 3.82721 7.0829 4.2751 6.59745 4.75956C6.46464 4.8921 6.33641 5.02464 6.2036 5.15261C5.8189 5.54565 6.1211 5.24407 5.72267 5.60056C5.71351 5.6097 5.70435 5.61427 5.69977 5.62341C5.30591 6.01646 5.37919 6.40037 5.46162 6.66088C5.4662 6.67459 5.47078 6.6883 5.47536 6.70201C5.80052 7.48811 6.25849 8.2285 6.95461 9.11058L6.95919 9.11515C8.22318 10.6691 9.55587 11.8802 11.026 12.808C11.2137 12.9268 11.4061 13.0228 11.5893 13.1142C11.7541 13.1965 11.9098 13.2742 12.0426 13.3564C12.061 13.3656 12.0793 13.3793 12.0976 13.3884C12.2533 13.4661 12.3999 13.5027 12.551 13.5027C12.9311 13.5027 13.1693 13.265 13.2471 13.1873L14.1448 12.2915C14.3005 12.1361 14.5478 11.9487 14.8363 11.9487C15.1203 11.9487 15.3538 12.1269 15.4958 12.2823C15.5004 12.2869 15.5004 12.2869 15.505 12.2915L18.0284 14.8097C18.5001 15.2759 18.033 16.2403 18.033 16.2403Z" stroke="currentColor" stroke-width="2" stroke-linecap="round" stroke-linejoin="round"/>
</svg>
